<!--?xml version="1.0" standalone="no"?-->
              <svg id="sw-js-blob-svg" viewBox="0 0 100 100" xmlns="http://www.w3.org/2000/svg" version="1.1">
                    <defs> 
                        <linearGradient id="sw-gradient" x1="0" x2="1" y1="1" y2="0">
                            <stop id="stop1" stop-color="rgba(248, 117, 55, 1)" offset="0%"></stop>
                            <stop id="stop2" stop-color="rgba(251, 168, 31, 1)" offset="100%"></stop>
                        </linearGradient>
                    </defs>
                <path fill="url(#sw-gradient)" d="M28.7,-32.9C36.8,-27.4,42.7,-18,43.9,-8.2C45,1.6,41.5,11.7,36,20.5C30.6,29.2,23.3,36.6,14.8,38.9C6.3,41.3,-3.4,38.6,-11.9,34.6C-20.5,30.7,-27.9,25.5,-33.1,18.3C-38.3,11,-41.2,1.6,-40.3,-7.7C-39.4,-17,-34.5,-26.2,-27.2,-31.7C-19.8,-37.3,-9.9,-39.2,0.2,-39.5C10.3,-39.7,20.6,-38.3,28.7,-32.9Z" width="100%" height="100%" transform="translate(50 50)" stroke-width="0" style="transition: all 0.3s ease 0s;"></path>
              </svg>